<?xml version="1.0" encoding="UTF-8"?>
<svg xmlns="http://www.w3.org/2000/svg" width="1600" height="940" viewBox="0 0 1600 940" role="img" aria-label="MapLibre Native Layer Stack">
  <defs>
    <linearGradient id="bg" x1="0" y1="0" x2="1" y2="1"><stop offset="0" stop-color="#ffffff"/><stop offset="0.55" stop-color="#f8fbff"/><stop offset="1" stop-color="#edf6ff"/></linearGradient>
    <linearGradient id="card" x1="0" y1="0" x2="1" y2="1"><stop offset="0" stop-color="#ffffff" stop-opacity="0.98"/><stop offset="1" stop-color="#f3f8ff" stop-opacity="0.96"/></linearGradient>
    <linearGradient id="center" x1="0" y1="0" x2="1" y2="1"><stop offset="0" stop-color="#eef6ff"/><stop offset="1" stop-color="#e6fffb"/></linearGradient>
    <filter id="shadow" x="-20%" y="-30%" width="140%" height="170%"><feDropShadow dx="0" dy="18" stdDeviation="20" flood-color="#1d3557" flood-opacity="0.13"/></filter>
  </defs>
  <rect width="1600" height="940" fill="url(#bg)"/>
  <circle cx="1250" cy="90" r="280" fill="#14b8a6" fill-opacity="0.08"/>
  <circle cx="150" cy="850" r="340" fill="#2563eb" fill-opacity="0.07"/>
  <text x="72" y="88" font-size="52" font-weight="820" fill="#071025">MapLibre Native Layer Stack</text>
  <text x="74" y="126" font-size="22" fill="#667085">Clean boundaries from app code to GPU hardware</text>
  
    <g filter="url(#shadow)">
      <rect x="430" y="170" width="740" height="78" rx="26" fill="url(#card)" stroke="#2563eb" stroke-opacity="0.36"/>
    </g>
    <circle cx="488" cy="209" r="30" fill="#2563eb" fill-opacity="0.12"/>
    <text x="488" y="219" text-anchor="middle" font-size="26" font-weight="800" fill="#2563eb">1</text>
    <text x="540" y="212" font-size="28" font-weight="760" fill="#101828">Application Layer</text>
    <text x="540" y="244" font-size="18" fill="#475467">Product UI, routing, business workflows</text>
  <path d="M 800 248 L 800 262" stroke="#2563eb" stroke-width="3" stroke-linecap="round"/><path d="M 792 253 L 800 262 L 808 253" fill="none" stroke="#2563eb" stroke-width="3" stroke-linecap="round" stroke-linejoin="round"/>
    <g filter="url(#shadow)">
      <rect x="430" y="270" width="740" height="78" rx="26" fill="url(#card)" stroke="#14b8a6" stroke-opacity="0.36"/>
    </g>
    <circle cx="488" cy="309" r="30" fill="#14b8a6" fill-opacity="0.12"/>
    <text x="488" y="319" text-anchor="middle" font-size="26" font-weight="800" fill="#14b8a6">2</text>
    <text x="540" y="312" font-size="28" font-weight="760" fill="#101828">Platform SDK Layer</text>
    <text x="540" y="344" font-size="18" fill="#475467">Android, iOS, macOS, Linux and other wrappers</text>
  <path d="M 800 348 L 800 362" stroke="#2563eb" stroke-width="3" stroke-linecap="round"/><path d="M 792 353 L 800 362 L 808 353" fill="none" stroke="#2563eb" stroke-width="3" stroke-linecap="round" stroke-linejoin="round"/>
    <g filter="url(#shadow)">
      <rect x="430" y="370" width="740" height="78" rx="26" fill="url(#card)" stroke="#7c3aed" stroke-opacity="0.36"/>
    </g>
    <circle cx="488" cy="409" r="30" fill="#7c3aed" fill-opacity="0.12"/>
    <text x="488" y="419" text-anchor="middle" font-size="26" font-weight="800" fill="#7c3aed">3</text>
    <text x="540" y="412" font-size="28" font-weight="760" fill="#101828">Native Binding Layer</text>
    <text x="540" y="444" font-size="18" fill="#475467">JNI / Objective-C++ / platform type conversion</text>
  <path d="M 800 448 L 800 462" stroke="#2563eb" stroke-width="3" stroke-linecap="round"/><path d="M 792 453 L 800 462 L 808 453" fill="none" stroke="#2563eb" stroke-width="3" stroke-linecap="round" stroke-linejoin="round"/>
    <g filter="url(#shadow)">
      <rect x="430" y="470" width="740" height="78" rx="26" fill="url(#card)" stroke="#2563eb" stroke-opacity="0.36"/>
    </g>
    <circle cx="488" cy="509" r="30" fill="#2563eb" fill-opacity="0.12"/>
    <text x="488" y="519" text-anchor="middle" font-size="26" font-weight="800" fill="#2563eb">4</text>
    <text x="540" y="512" font-size="28" font-weight="760" fill="#101828">Core Map Engine</text>
    <text x="540" y="544" font-size="18" fill="#475467">Map lifecycle, camera, observer and update snapshots</text>
  <path d="M 800 548 L 800 562" stroke="#2563eb" stroke-width="3" stroke-linecap="round"/><path d="M 792 553 L 800 562 L 808 553" fill="none" stroke="#2563eb" stroke-width="3" stroke-linecap="round" stroke-linejoin="round"/>
    <g filter="url(#shadow)">
      <rect x="430" y="570" width="740" height="78" rx="26" fill="url(#card)" stroke="#14b8a6" stroke-opacity="0.36"/>
    </g>
    <circle cx="488" cy="609" r="30" fill="#14b8a6" fill-opacity="0.12"/>
    <text x="488" y="619" text-anchor="middle" font-size="26" font-weight="800" fill="#14b8a6">5</text>
    <text x="540" y="612" font-size="28" font-weight="760" fill="#101828">Style Engine</text>
    <text x="540" y="644" font-size="18" fill="#475467">Style JSON, source/layer model, immutable diff</text>
  <path d="M 800 648 L 800 662" stroke="#2563eb" stroke-width="3" stroke-linecap="round"/><path d="M 792 653 L 800 662 L 808 653" fill="none" stroke="#2563eb" stroke-width="3" stroke-linecap="round" stroke-linejoin="round"/>
    <g filter="url(#shadow)">
      <rect x="430" y="670" width="740" height="78" rx="26" fill="url(#card)" stroke="#7c3aed" stroke-opacity="0.36"/>
    </g>
    <circle cx="488" cy="709" r="30" fill="#7c3aed" fill-opacity="0.12"/>
    <text x="488" y="719" text-anchor="middle" font-size="26" font-weight="800" fill="#7c3aed">6</text>
    <text x="540" y="712" font-size="28" font-weight="760" fill="#101828">Tile System</text>
    <text x="540" y="744" font-size="18" fill="#475467">Tile pyramid, cache, vector/raster tile loading</text>
  <path d="M 800 748 L 800 762" stroke="#2563eb" stroke-width="3" stroke-linecap="round"/><path d="M 792 753 L 800 762 L 808 753" fill="none" stroke="#2563eb" stroke-width="3" stroke-linecap="round" stroke-linejoin="round"/>
    <g filter="url(#shadow)">
      <rect x="430" y="770" width="740" height="78" rx="26" fill="url(#card)" stroke="#2563eb" stroke-opacity="0.36"/>
    </g>
    <circle cx="488" cy="809" r="30" fill="#2563eb" fill-opacity="0.12"/>
    <text x="488" y="819" text-anchor="middle" font-size="26" font-weight="800" fill="#2563eb">7</text>
    <text x="540" y="812" font-size="28" font-weight="760" fill="#101828">Rendering Engine</text>
    <text x="540" y="844" font-size="18" fill="#475467">Render tree, buckets, placement and render passes</text>
  <path d="M 800 848 L 800 862" stroke="#2563eb" stroke-width="3" stroke-linecap="round"/><path d="M 792 853 L 800 862 L 808 853" fill="none" stroke="#2563eb" stroke-width="3" stroke-linecap="round" stroke-linejoin="round"/>
    <g filter="url(#shadow)">
      <rect x="430" y="870" width="740" height="78" rx="26" fill="url(#card)" stroke="#14b8a6" stroke-opacity="0.36"/>
    </g>
    <circle cx="488" cy="909" r="30" fill="#14b8a6" fill-opacity="0.12"/>
    <text x="488" y="919" text-anchor="middle" font-size="26" font-weight="800" fill="#14b8a6">8</text>
    <text x="540" y="912" font-size="28" font-weight="760" fill="#101828">Graphics Backend</text>
    <text x="540" y="944" font-size="18" fill="#475467">OpenGL, Metal, Vulkan, WebGPU abstractions</text>
  <path d="M 800 948 L 800 962" stroke="#2563eb" stroke-width="3" stroke-linecap="round"/><path d="M 792 953 L 800 962 L 808 953" fill="none" stroke="#2563eb" stroke-width="3" stroke-linecap="round" stroke-linejoin="round"/>
    <g filter="url(#shadow)">
      <rect x="430" y="970" width="740" height="78" rx="26" fill="url(#card)" stroke="#7c3aed" stroke-opacity="0.36"/>
    </g>
    <circle cx="488" cy="1009" r="30" fill="#7c3aed" fill-opacity="0.12"/>
    <text x="488" y="1019" text-anchor="middle" font-size="26" font-weight="800" fill="#7c3aed">9</text>
    <text x="540" y="1012" font-size="28" font-weight="760" fill="#101828">GPU / OS / Hardware</text>
    <text x="540" y="1044" font-size="18" fill="#475467">Native surface, command buffers and presentation</text>
  
</svg>