<?xml version="1.0" encoding="UTF-8"?>
<svg xmlns="http://www.w3.org/2000/svg" width="1600" height="940" viewBox="0 0 1600 940" role="img" aria-label="Resource Loading and Cache Flow">
  <defs>
    <linearGradient id="bg" x1="0" y1="0" x2="1" y2="1"><stop offset="0" stop-color="#ffffff"/><stop offset="0.55" stop-color="#f8fbff"/><stop offset="1" stop-color="#edf6ff"/></linearGradient>
    <linearGradient id="card" x1="0" y1="0" x2="1" y2="1"><stop offset="0" stop-color="#ffffff" stop-opacity="0.98"/><stop offset="1" stop-color="#f3f8ff" stop-opacity="0.96"/></linearGradient>
    <linearGradient id="center" x1="0" y1="0" x2="1" y2="1"><stop offset="0" stop-color="#eef6ff"/><stop offset="1" stop-color="#e6fffb"/></linearGradient>
    <filter id="shadow" x="-20%" y="-30%" width="140%" height="170%"><feDropShadow dx="0" dy="18" stdDeviation="20" flood-color="#1d3557" flood-opacity="0.13"/></filter>
  </defs>
  <rect width="1600" height="940" fill="url(#bg)"/>
  <circle cx="1250" cy="90" r="280" fill="#14b8a6" fill-opacity="0.08"/>
  <circle cx="150" cy="850" r="340" fill="#2563eb" fill-opacity="0.07"/>
  <text x="72" y="88" font-size="52" font-weight="820" fill="#071025">Resource Loading and Cache Flow</text>
  <text x="74" y="126" font-size="22" fill="#667085">Cache-first tile loading with network revalidation when required</text>
  
      <g filter="url(#shadow)"><rect x="80" y="390" width="180" height="120" rx="24" fill="url(#card)" stroke="#2563eb" stroke-opacity="0.34"/></g>
      <circle cx="170" cy="428" r="22" fill="#2563eb" fill-opacity="0.14"/>
      <text x="170" y="437" text-anchor="middle" font-size="22" font-weight="800" fill="#2563eb">1</text>
      <text x="170" y="474" text-anchor="middle" font-size="20" font-weight="740" fill="#101828">Resource::tile</text><path d="M 268 450 L 280 450" stroke="#2563eb" stroke-width="3" stroke-linecap="round"/><path d="M 270 442 L 280 450 L 270 458" fill="none" stroke="#2563eb" stroke-width="3" stroke-linecap="round" stroke-linejoin="round"/>
      <g filter="url(#shadow)"><rect x="290" y="390" width="180" height="120" rx="24" fill="url(#card)" stroke="#2563eb" stroke-opacity="0.34"/></g>
      <circle cx="380" cy="428" r="22" fill="#2563eb" fill-opacity="0.14"/>
      <text x="380" y="437" text-anchor="middle" font-size="22" font-weight="800" fill="#2563eb">2</text>
      <text x="380" y="474" text-anchor="middle" font-size="20" font-weight="740" fill="#101828">FileSource</text><path d="M 478 450 L 490 450" stroke="#2563eb" stroke-width="3" stroke-linecap="round"/><path d="M 480 442 L 490 450 L 480 458" fill="none" stroke="#2563eb" stroke-width="3" stroke-linecap="round" stroke-linejoin="round"/>
      <g filter="url(#shadow)"><rect x="500" y="390" width="180" height="120" rx="24" fill="url(#card)" stroke="#2563eb" stroke-opacity="0.34"/></g>
      <circle cx="590" cy="428" r="22" fill="#2563eb" fill-opacity="0.14"/>
      <text x="590" y="437" text-anchor="middle" font-size="22" font-weight="800" fill="#2563eb">3</text>
      <text x="590" y="474" text-anchor="middle" font-size="20" font-weight="740" fill="#101828">CacheOnly</text><path d="M 688 450 L 700 450" stroke="#2563eb" stroke-width="3" stroke-linecap="round"/><path d="M 690 442 L 700 450 L 690 458" fill="none" stroke="#2563eb" stroke-width="3" stroke-linecap="round" stroke-linejoin="round"/>
      <g filter="url(#shadow)"><rect x="710" y="390" width="180" height="120" rx="24" fill="url(#card)" stroke="#2563eb" stroke-opacity="0.34"/></g>
      <circle cx="800" cy="428" r="22" fill="#2563eb" fill-opacity="0.14"/>
      <text x="800" y="437" text-anchor="middle" font-size="22" font-weight="800" fill="#2563eb">4</text>
      <text x="800" y="474" text-anchor="middle" font-size="20" font-weight="740" fill="#101828">NetworkOnly</text><path d="M 898 450 L 910 450" stroke="#2563eb" stroke-width="3" stroke-linecap="round"/><path d="M 900 442 L 910 450 L 900 458" fill="none" stroke="#2563eb" stroke-width="3" stroke-linecap="round" stroke-linejoin="round"/>
      <g filter="url(#shadow)"><rect x="920" y="390" width="180" height="120" rx="24" fill="url(#card)" stroke="#2563eb" stroke-opacity="0.34"/></g>
      <circle cx="1010" cy="428" r="22" fill="#2563eb" fill-opacity="0.14"/>
      <text x="1010" y="437" text-anchor="middle" font-size="22" font-weight="800" fill="#2563eb">5</text>
      <text x="1010" y="474" text-anchor="middle" font-size="20" font-weight="740" fill="#101828">Response</text><path d="M 1108 450 L 1120 450" stroke="#2563eb" stroke-width="3" stroke-linecap="round"/><path d="M 1110 442 L 1120 450 L 1110 458" fill="none" stroke="#2563eb" stroke-width="3" stroke-linecap="round" stroke-linejoin="round"/>
      <g filter="url(#shadow)"><rect x="1130" y="390" width="180" height="120" rx="24" fill="url(#card)" stroke="#2563eb" stroke-opacity="0.34"/></g>
      <circle cx="1220" cy="428" r="22" fill="#2563eb" fill-opacity="0.14"/>
      <text x="1220" y="437" text-anchor="middle" font-size="22" font-weight="800" fill="#2563eb">6</text>
      <text x="1220" y="474" text-anchor="middle" font-size="20" font-weight="740" fill="#101828">TileLoader</text><path d="M 1318 450 L 1330 450" stroke="#2563eb" stroke-width="3" stroke-linecap="round"/><path d="M 1320 442 L 1330 450 L 1320 458" fill="none" stroke="#2563eb" stroke-width="3" stroke-linecap="round" stroke-linejoin="round"/>
      <g filter="url(#shadow)"><rect x="1340" y="390" width="180" height="120" rx="24" fill="url(#card)" stroke="#2563eb" stroke-opacity="0.34"/></g>
      <circle cx="1430" cy="428" r="22" fill="#2563eb" fill-opacity="0.14"/>
      <text x="1430" y="437" text-anchor="middle" font-size="22" font-weight="800" fill="#2563eb">7</text>
      <text x="1430" y="474" text-anchor="middle" font-size="20" font-weight="740" fill="#101828">Tile Data</text>
</svg>